<svg width="24" height="24" viewBox="0 0 24 24" fill="none" xmlns="http://www.w3.org/2000/svg">
<path fill-rule="evenodd" clip-rule="evenodd" d="M2.47007 12.53C2.32962 12.3894 2.25073 12.1987 2.25073 12C2.25073 11.8012 2.32962 11.6106 2.47007 11.47L9.45707 4.47C9.52622 4.39833 9.60895 4.34116 9.70044 4.30181C9.79192 4.26246 9.89033 4.24172 9.98991 4.24081C10.0895 4.2399 10.1883 4.25883 10.2805 4.2965C10.3726 4.33417 10.4564 4.38982 10.5269 4.4602C10.5973 4.53059 10.653 4.6143 10.6908 4.70645C10.7286 4.79861 10.7476 4.89736 10.7468 4.99694C10.7459 5.09653 10.7253 5.19495 10.686 5.28647C10.6468 5.37799 10.5897 5.46078 10.5181 5.53L4.81007 11.249L21.0001 11.238C21.199 11.2377 21.3899 11.3165 21.5307 11.457C21.6715 11.5974 21.7508 11.7881 21.7511 11.987C21.7513 12.1859 21.6726 12.3768 21.5321 12.5176C21.3916 12.6585 21.201 12.7377 21.0021 12.738L4.80807 12.748L10.5191 18.47C10.5907 18.5392 10.6478 18.622 10.687 18.7135C10.7263 18.805 10.7469 18.9035 10.7478 19.0031C10.7486 19.1026 10.7296 19.2014 10.6918 19.2935C10.654 19.3857 10.5983 19.4694 10.5279 19.5398C10.4574 19.6102 10.3736 19.6658 10.2815 19.7035C10.1893 19.7412 10.0905 19.7601 9.99091 19.7592C9.89133 19.7583 9.79292 19.7375 9.70144 19.6982C9.60996 19.6588 9.52722 19.6017 9.45807 19.53L2.47007 12.53Z" fill="black"/>
</svg>
