<svg width="137" height="49" viewBox="0 0 137 49" fill="none" xmlns="http://www.w3.org/2000/svg">
<path d="M9.65371 14.0599C9.98493 14.0599 10.2714 14.1709 10.5113 14.3911C10.7512 14.6131 10.8712 14.8888 10.8712 15.2218C10.9446 16.3659 11.018 17.6943 11.0932 19.2054C11.1666 20.7183 11.24 22.3046 11.3152 23.9643C11.3886 25.6239 11.471 27.3302 11.564 29.083C11.6554 30.8357 11.7377 32.542 11.8129 34.2017C11.8129 34.6815 12.0707 34.9214 12.5881 34.9214H20.3351C20.6305 34.9214 20.8687 35.0145 21.0549 35.1989C21.2393 35.3833 21.3503 35.6232 21.3861 35.9186L21.7728 42.1151C21.8086 42.4106 21.7352 42.6505 21.5508 42.8349C21.3664 43.0193 21.1265 43.1124 20.8311 43.1124H5.06138C4.69257 43.1124 4.39715 42.9924 4.17515 42.7525C3.95314 42.5126 3.84392 42.2262 3.84392 41.8949C3.91733 40.2352 4.01043 38.2157 4.12143 35.8363C4.23244 33.4569 4.3506 31.0219 4.4813 28.5315C4.61021 26.0411 4.73016 23.6169 4.84117 21.2554C4.95217 18.8957 5.04348 16.8833 5.11689 15.2236C5.15269 14.8924 5.28339 14.6149 5.50361 14.3929C5.72383 14.1709 6.00133 14.0617 6.33256 14.0617H9.65192M9.65371 12.8066H6.33435C5.66832 12.8066 5.07571 13.0483 4.61916 13.5048C4.19663 13.9274 3.93881 14.4734 3.87257 15.084L3.86899 15.1234V15.1645C3.78305 17.0265 3.68995 19.055 3.59148 21.1927C3.48048 23.5381 3.36052 25.9856 3.23161 28.4635C3.10629 30.8698 2.98454 33.3297 2.87175 35.7736C2.75895 38.2014 2.66764 40.1851 2.59424 41.8358V41.8627V41.8913C2.59424 42.5377 2.82341 43.1285 3.26026 43.5994C3.7186 44.0971 4.34344 44.3621 5.06497 44.3621H20.8346C21.4631 44.3621 22.0181 44.1401 22.4406 43.7175C22.8882 43.2699 23.0941 42.663 23.0243 42.0024L22.6394 35.8363V35.7969L22.6322 35.7575C22.5606 35.1917 22.3225 34.6904 21.9447 34.3109C21.5186 33.8866 20.9636 33.6645 20.3369 33.6645H13.0465C12.9767 32.1445 12.9015 30.5833 12.8191 29.0149C12.7278 27.2908 12.6437 25.5738 12.5702 23.907C12.4915 22.1399 12.4181 20.5822 12.3482 19.1428C12.273 17.6012 12.1996 16.3014 12.128 15.1735C12.1173 14.5093 11.8541 13.9202 11.3653 13.469C10.8927 13.034 10.3018 12.8048 9.65729 12.8048L9.65371 12.8066Z" fill="#FF9A42"/>
<path d="M37.4153 13.5066C39.0374 13.5066 40.4768 13.802 41.7319 14.3929C42.9852 14.9837 44.0379 15.8126 44.8865 16.8833C45.7352 17.9539 46.3994 19.2162 46.8774 20.6735C47.3573 22.1309 47.633 23.744 47.7082 25.5147C47.8192 27.9138 47.9302 30.1625 48.0394 32.2662C48.0752 33.1525 48.1218 34.0459 48.1773 34.95C48.2328 35.8542 48.2775 36.7118 48.3151 37.5228C48.3509 38.3338 48.3885 39.0625 48.4261 39.7089C48.4619 40.3552 48.4816 40.8798 48.4816 41.2862C48.555 41.988 48.4548 42.4678 48.1773 42.7257C47.8997 42.9835 47.5954 43.1124 47.2642 43.1124H41.1769C40.475 43.1124 39.9505 42.9924 39.5995 42.7525C39.2486 42.5126 39.0732 42.0238 39.0732 41.2862C39.0732 40.733 39.211 40.0884 39.4885 39.349C39.766 38.6114 40.0973 37.8272 40.484 36.9982C40.8707 36.1675 41.2771 35.3099 41.7014 34.4254C42.1258 33.5392 42.5035 32.6744 42.8365 31.824C42.9834 31.4552 42.9476 31.124 42.7255 30.8286C42.5035 30.5332 42.1902 30.3863 41.7856 30.3863H33.0432C32.6367 30.3863 32.3234 30.5349 32.1032 30.8286C31.8812 31.124 31.8454 31.457 31.9922 31.824C32.3252 32.6727 32.7012 33.5392 33.1273 34.4254C33.5516 35.3117 33.958 36.1693 34.3448 36.9982C34.7315 37.829 35.0645 38.6131 35.3402 39.349C35.6159 40.0866 35.7556 40.733 35.7556 41.2862C35.7556 42.0238 35.5801 42.5126 35.2292 42.7525C34.8783 42.9924 34.3519 43.1124 33.6519 43.1124H27.5646C27.2334 43.1124 26.9362 42.9835 26.6801 42.7257C26.4223 42.4678 26.3113 41.988 26.3489 41.2862C26.3847 40.8816 26.4223 40.3552 26.4599 39.7089C26.4957 39.0643 26.5333 38.3356 26.5709 37.5228C26.6067 36.7118 26.6443 35.8542 26.6819 34.95C26.7177 34.0459 26.7553 33.1525 26.7929 32.2662C26.9039 30.1643 27.0149 27.9138 27.1242 25.5147C27.1976 23.744 27.4751 22.1309 27.9549 20.6735C28.4347 19.2162 29.0972 17.9539 29.9476 16.8833C30.7962 15.8144 31.8472 14.9837 33.1022 14.3929C34.3555 13.8038 35.795 13.5066 37.4189 13.5066M32.9877 26.7859H41.8411C42.2457 26.7859 42.5501 26.6194 42.7542 26.2882C42.9565 25.9569 42.9655 25.606 42.781 25.2372C42.2636 24.2776 41.5439 23.5417 40.6236 23.0243C39.7016 22.5087 38.6327 22.2491 37.4153 22.2491C36.1978 22.2491 35.1272 22.5069 34.2069 23.0243C33.2849 23.5417 32.5651 24.2794 32.0495 25.2372C31.8651 25.606 31.874 25.9569 32.0781 26.2882C32.2805 26.6194 32.5848 26.7859 32.9912 26.7859M37.4153 12.2534C35.6142 12.2534 33.9831 12.5917 32.5651 13.2578C31.14 13.9292 29.9279 14.8852 28.9629 16.1027C28.0265 17.2843 27.2853 18.6898 26.7625 20.2796C26.2487 21.8408 25.9479 23.5847 25.8709 25.461C25.7617 27.835 25.6507 30.1035 25.5397 32.1982V32.2054V32.2125C25.5021 33.0988 25.4645 33.994 25.4287 34.8981C25.3911 35.7987 25.3553 36.6563 25.3177 37.4655C25.2837 38.2193 25.2461 38.9515 25.2085 39.6372C25.1726 40.2603 25.1368 40.7759 25.101 41.1734V41.1967L25.0974 41.2199C25.0402 42.3049 25.2693 43.0873 25.7975 43.6119C26.2863 44.1025 26.9004 44.3638 27.5664 44.3638H33.6537C34.6223 44.3638 35.3689 44.1741 35.9382 43.7856C36.649 43.3004 37.0089 42.4589 37.0089 41.2844C37.0089 40.5736 36.8477 39.7966 36.5147 38.9086C36.2265 38.1423 35.8791 37.3205 35.4799 36.4665C35.1093 35.6715 34.7082 34.8265 34.257 33.883C33.8936 33.1256 33.5606 32.3719 33.267 31.6378H41.5636C41.2718 32.3665 40.9387 33.1185 40.5735 33.883C40.1599 34.7477 39.7481 35.616 39.3507 36.4665C38.9532 37.3187 38.6059 38.1405 38.3176 38.9086C37.9846 39.7966 37.8235 40.5736 37.8235 41.2862C37.8235 42.4607 38.1851 43.3022 38.8959 43.7873C39.4599 44.1759 40.2083 44.3656 41.1787 44.3656H47.266C47.9159 44.3656 48.5264 44.115 49.0349 43.6405C49.6006 43.1142 49.8369 42.3013 49.7367 41.2235C49.7367 40.8082 49.717 40.2889 49.6794 39.639C49.6418 38.9784 49.6042 38.2497 49.5702 37.4673C49.5326 36.6384 49.486 35.7646 49.4305 34.873C49.375 33.9564 49.3285 33.063 49.2927 32.2143V32.2072V32.2C49.1799 30.0694 49.0689 27.7992 48.9614 25.4574C48.8827 23.5847 48.5819 21.8426 48.0698 20.2814C47.5453 18.6916 46.8058 17.2861 45.8695 16.1045C44.9027 14.887 43.6906 13.9292 42.2672 13.2596C40.8474 12.5917 39.2164 12.2551 37.4171 12.2551L37.4153 12.2534ZM33.326 25.5326C33.7092 24.9293 34.1997 24.4638 34.8192 24.1164C35.5479 23.7082 36.4216 23.5023 37.4153 23.5023C38.4089 23.5023 39.2719 23.7028 40.0131 24.1182C40.6308 24.4638 41.1214 24.9293 41.5045 25.5344H33.326V25.5326Z" fill="#FF9A42"/>
<path d="M81.3675 35.7754C81.26 33.4622 81.1419 31.0703 81.0076 28.4635C80.9503 27.357 80.893 26.2344 80.8375 25.1047C80.7731 23.8085 80.7086 22.5015 80.6477 21.1945C80.526 18.6056 80.4383 16.6899 80.372 15.1663V15.1233L80.3649 15.0822C80.2968 14.4716 80.039 13.9256 79.6183 13.5048C79.1617 13.0483 78.5673 12.8066 77.9031 12.8066H74.9687C73.5704 12.8066 72.3243 13.179 71.2661 13.9166C70.3011 14.5862 69.4525 15.4349 68.7453 16.4339C68.0721 17.3828 67.4884 18.4284 67.0122 19.542C66.903 19.7962 66.7973 20.0451 66.6971 20.2904C66.5968 20.0451 66.4912 19.7962 66.382 19.542C65.9075 18.432 65.3239 17.3864 64.6489 16.4339C63.9399 15.4331 63.093 14.5862 62.1298 13.9166C61.0681 13.179 59.822 12.8066 58.4255 12.8066H55.4929C54.8269 12.8066 54.2342 13.0483 53.7759 13.5048C53.3552 13.9274 53.0956 14.4734 53.0293 15.0857L53.0239 15.1251V15.1663C52.9398 17.0122 52.8467 19.0389 52.7464 21.1945C52.639 23.4916 52.5173 25.9372 52.3866 28.4635C52.263 30.8608 52.1413 33.3208 52.0267 35.7754C51.9067 38.3446 51.819 40.271 51.751 41.8358V41.8645V41.8913C51.751 42.1975 51.8029 42.4929 51.9032 42.7668C52.0142 43.0712 52.186 43.3523 52.4152 43.6011C52.8735 44.0989 53.4984 44.3621 54.2217 44.3621H60.1425C60.8085 44.3621 61.4101 44.1114 61.8863 43.6352C62.3608 43.1607 62.6132 42.5574 62.6132 41.8913V41.8502C62.5738 40.6971 62.5183 39.3597 62.4449 37.8737C62.4199 37.3831 62.3948 36.8854 62.3697 36.3787C62.3142 35.3332 62.2569 34.2554 62.1961 33.1632C62.1012 31.4946 62.0081 29.7937 61.9186 28.1036C61.8577 26.9613 61.8004 25.8262 61.7467 24.7144C61.8398 24.8165 61.9239 24.9257 62.0009 25.0403C62.3769 25.6132 62.6526 26.2756 62.8209 27.0115C63.0035 27.8064 63.1038 28.6515 63.1217 29.5234C63.1396 30.4902 63.1503 31.4122 63.1503 32.2644C63.1503 33.1632 63.2094 33.7558 63.3455 34.1873C63.4261 34.4487 63.6499 34.9446 64.2228 35.2472C64.5146 35.403 64.8978 35.5086 65.3991 35.5086H67.9987C69.4793 35.5086 69.9287 34.5848 70.0523 34.1891C70.1865 33.7576 70.2492 33.1471 70.2492 32.2644C70.2492 32.0335 70.2492 31.8025 70.251 31.568C70.2546 30.8894 70.2635 30.2037 70.2761 29.5216C70.2922 28.6532 70.3942 27.8082 70.5768 27.0115C70.7451 26.2756 71.0209 25.6132 71.3968 25.0403C71.4738 24.9257 71.558 24.8165 71.6511 24.7144C71.5974 25.8173 71.5401 26.9506 71.4792 28.1036C71.4291 29.0489 71.3807 29.9853 71.336 30.9055C71.2984 31.6754 71.2626 32.4327 71.2285 33.1758C71.1498 34.916 71.0781 36.4521 71.0083 37.8737C70.9313 39.4009 70.8597 40.69 70.7881 41.8108L70.7845 41.8519V41.8913C70.7845 42.5591 71.037 43.1625 71.5132 43.637C71.9859 44.1114 72.5892 44.3621 73.2553 44.3621H79.176C79.8421 44.3621 80.4454 44.1114 80.9199 43.6352C81.3961 43.1607 81.6468 42.5574 81.6468 41.8913V41.8358C81.5716 40.1761 81.4803 38.1548 81.3693 35.7754H81.3675ZM80.0318 42.7489C79.7919 42.9906 79.5073 43.1088 79.1743 43.1088H73.2535C72.9222 43.1088 72.6358 42.9906 72.3959 42.7489C72.156 42.5108 72.036 42.2243 72.036 41.8913C72.1112 40.7491 72.1846 39.4296 72.258 37.9364C72.3314 36.4414 72.4048 34.8748 72.48 33.233C72.5248 32.2125 72.5749 31.1741 72.6286 30.116C72.6608 29.475 72.6931 28.8251 72.7289 28.1698C72.8202 26.4368 72.9025 24.7574 72.9777 23.1335C72.9777 22.9867 72.9133 22.8667 72.7844 22.7736C72.711 22.7235 72.6376 22.6984 72.5588 22.6984C72.4979 22.6984 72.4335 22.7146 72.369 22.7468C71.4828 23.1156 70.8096 23.6509 70.3495 24.351C69.8875 25.0528 69.5563 25.8459 69.354 26.7304C69.1499 27.6166 69.0389 28.5387 69.021 29.4983C69.0013 30.458 68.9941 31.3782 68.9941 32.2644V32.3343C68.9906 33.0343 68.944 33.5285 68.8545 33.8131C68.7632 34.1085 68.4767 34.2554 67.9969 34.2554H65.3973C64.9174 34.2554 64.631 34.1085 64.5397 33.8131C64.4466 33.5195 64.4018 33.0021 64.4018 32.2644C64.4018 31.3782 64.3911 30.458 64.3732 29.4983C64.3535 28.5387 64.2443 27.6166 64.042 26.7304C63.8378 25.8459 63.5066 25.0528 63.0447 24.351C62.5828 23.6509 61.9114 23.1156 61.0252 22.7468C60.9428 22.7146 60.8694 22.6984 60.8014 22.6984C60.7172 22.6984 60.6438 22.7235 60.5829 22.7736C60.4719 22.8667 60.4164 22.9867 60.4164 23.1335C60.4898 24.7574 60.574 26.4368 60.6653 28.1698C60.7584 29.9029 60.8497 31.5913 60.9428 33.233C61.018 34.5794 61.086 35.8756 61.1505 37.1218C61.1648 37.3957 61.1773 37.6678 61.1917 37.9364C61.2651 39.4296 61.3206 40.7491 61.3582 41.8913C61.3582 42.2243 61.2382 42.5108 60.9983 42.7489C60.7584 42.9906 60.4719 43.1088 60.1407 43.1088H54.2199C53.8511 43.1088 53.5557 42.9906 53.3337 42.7489C53.1582 42.5591 53.0508 42.3371 53.0168 42.0865C53.006 42.0238 53.0025 41.9576 53.0025 41.8913C53.0759 40.2316 53.169 38.2121 53.2782 35.8327C53.3892 33.4533 53.5091 31.0183 53.638 28.5297C53.7669 26.0393 53.8869 23.6133 53.9979 21.2536C54.1089 18.8921 54.2002 16.8815 54.2754 15.2218C54.3112 14.8888 54.4401 14.6131 54.6621 14.3911C54.8841 14.1709 55.1599 14.0598 55.4929 14.0598H58.4255C59.5678 14.0598 60.5632 14.3553 61.4137 14.9443C62.2605 15.5351 62.9982 16.2728 63.6266 17.159C64.2532 18.0434 64.7885 19.0031 65.2308 20.0361C65.673 21.0692 66.0418 22.0091 66.3372 22.8578C66.373 23.0046 66.484 23.078 66.6702 23.078C66.8904 23.078 67.0194 23.0046 67.057 22.8578C67.3524 22.0091 67.7212 21.0692 68.1634 20.0361C68.6056 19.0031 69.141 18.0434 69.7676 17.159C70.3942 16.2728 71.1319 15.5351 71.9805 14.9443C72.8291 14.3553 73.8264 14.0598 74.9687 14.0598H77.9031C78.2343 14.0598 78.51 14.1709 78.732 14.3911C78.954 14.6131 79.0829 14.8888 79.1188 15.2218C79.1922 16.8815 79.2853 18.8921 79.3963 21.2536C79.4679 22.7593 79.5413 24.2919 79.6201 25.8495C79.663 26.734 79.7096 27.6274 79.7561 28.5297C79.885 31.0183 80.005 33.4533 80.116 35.8327C80.227 38.2121 80.3183 40.2316 80.3917 41.8913C80.3917 42.2243 80.2718 42.5108 80.0318 42.7489Z" fill="#FF9A42"/>
<path d="M106.195 19.773C105.633 18.3407 104.811 17.0856 103.745 16.0418C102.732 15.0481 101.486 14.2657 100.039 13.7125C99.9624 13.6839 99.8854 13.6552 99.8066 13.6266C98.2938 13.0823 96.541 12.8066 94.5966 12.8066H87.3474C86.6831 12.8066 86.0887 13.0483 85.6322 13.5048C85.2097 13.9274 84.9518 14.4734 84.8838 15.0857L84.8802 15.1251V15.1645C84.7907 17.1196 84.6976 19.1463 84.6027 21.1945C84.5723 21.8516 84.54 22.5158 84.5078 23.1926C84.4255 24.8648 84.3377 26.6068 84.2428 28.4635C84.1193 30.8178 83.9994 33.2778 83.883 35.7754C83.7576 38.4645 83.6717 40.3337 83.6055 41.8358V41.8645V41.8913C83.6055 42.5394 83.8364 43.1303 84.2715 43.6011C84.7298 44.0989 85.3547 44.3621 86.0762 44.3621H91.997C92.663 44.3621 93.2664 44.1114 93.7408 43.6352C94.2171 43.1607 94.4677 42.5574 94.4677 41.8913V41.843L94.4641 41.7946C94.3925 40.8637 94.337 39.784 94.3012 38.5899C94.2761 37.7752 94.2439 36.9284 94.2027 36.0618H94.5984C96.6018 36.0618 98.4048 35.7324 99.9534 35.0789C101.507 34.4254 102.829 33.5374 103.885 32.4417C104.94 31.3442 105.74 30.0712 106.261 28.6568C106.769 27.2693 107.029 25.8406 107.029 24.4065C107.029 22.745 106.748 21.1856 106.197 19.773H106.195ZM94.5966 34.8086H92.8814C92.9548 36.137 93.0103 37.41 93.0479 38.6275C93.0838 39.8449 93.1393 40.9335 93.2127 41.8913C93.2127 42.2243 93.0927 42.5108 92.8528 42.7489C92.6129 42.9906 92.3282 43.1088 91.9952 43.1088H86.0744C85.7056 43.1088 85.412 42.9906 85.19 42.7489C84.968 42.5108 84.8569 42.2243 84.8569 41.8913C84.9303 40.2316 85.0235 38.2121 85.1345 35.8327C85.2455 33.4533 85.3636 31.0183 85.4943 28.5297C85.6017 26.4421 85.7038 24.3993 85.8005 22.4048C85.8184 22.0199 85.8363 21.635 85.8542 21.2536C85.9652 18.8921 86.0565 16.8815 86.1299 15.2218C86.1675 14.8888 86.2964 14.6131 86.5184 14.3911C86.7386 14.1709 87.0161 14.0598 87.3474 14.0598H94.5966C96.088 14.0598 97.4362 14.2299 98.6375 14.5683C98.8935 14.6399 99.1406 14.7187 99.3823 14.8064C100.766 15.3042 101.928 16.0149 102.868 16.937C103.81 17.859 104.528 18.9565 105.027 20.2295C105.525 21.5025 105.774 22.8954 105.774 24.4065C105.774 25.6991 105.543 26.9703 105.083 28.2253C104.621 29.4786 103.921 30.5958 102.979 31.5716C102.039 32.5509 100.867 33.3351 99.4665 33.9241C98.0628 34.515 96.4407 34.8086 94.5966 34.8086ZM100.6 21.8605C99.5488 21.3825 97.916 21.1426 95.7031 21.1426H92.1617C92.2351 22.1756 92.2906 23.2445 92.3282 24.351C92.364 25.4574 92.4195 26.5836 92.4947 27.7258H95.5921C96.4783 27.7258 97.3252 27.6524 98.138 27.5056C98.949 27.3588 99.6598 27.1368 100.269 26.8414C100.877 26.546 101.346 26.1861 101.679 25.7618C102.011 25.3393 102.177 24.8308 102.177 24.24C102.177 23.1335 101.651 22.3422 100.6 21.8605ZM100.693 24.9883C100.48 25.2605 100.154 25.504 99.7225 25.7134C99.2176 25.9587 98.6107 26.1467 97.9142 26.272C97.1801 26.4063 96.3995 26.4726 95.5921 26.4726H93.6746C93.6352 25.7457 93.603 25.0224 93.5797 24.3098C93.5582 23.6635 93.5313 23.0243 93.4955 22.3959H95.7031C98.2203 22.3959 99.4736 22.7253 100.081 23.0028C100.781 23.3215 100.924 23.7279 100.924 24.24C100.924 24.5497 100.85 24.7878 100.693 24.9883ZM100.6 21.8605C99.5488 21.3825 97.916 21.1426 95.7031 21.1426H92.1617C92.2351 22.1756 92.2906 23.2445 92.3282 24.351C92.364 25.4574 92.4195 26.5836 92.4947 27.7258H95.5921C96.4783 27.7258 97.3252 27.6524 98.138 27.5056C98.949 27.3588 99.6598 27.1368 100.269 26.8414C100.877 26.546 101.346 26.1861 101.679 25.7618C102.011 25.3393 102.177 24.8308 102.177 24.24C102.177 23.1335 101.651 22.3422 100.6 21.8605ZM100.693 24.9883C100.48 25.2605 100.154 25.504 99.7225 25.7134C99.2176 25.9587 98.6107 26.1467 97.9142 26.272C97.1801 26.4063 96.3995 26.4726 95.5921 26.4726H93.6746C93.6352 25.7457 93.603 25.0224 93.5797 24.3098C93.5582 23.6635 93.5313 23.0243 93.4955 22.3959H95.7031C98.2203 22.3959 99.4736 22.7253 100.081 23.0028C100.781 23.3215 100.924 23.7279 100.924 24.24C100.924 24.5497 100.85 24.7878 100.693 24.9883ZM100.6 21.8605C99.5488 21.3825 97.916 21.1426 95.7031 21.1426H92.1617C92.2351 22.1756 92.2906 23.2445 92.3282 24.351C92.364 25.4574 92.4195 26.5836 92.4947 27.7258H95.5921C96.4783 27.7258 97.3252 27.6524 98.138 27.5056C98.949 27.3588 99.6598 27.1368 100.269 26.8414C100.877 26.546 101.346 26.1861 101.679 25.7618C102.011 25.3393 102.177 24.8308 102.177 24.24C102.177 23.1335 101.651 22.3422 100.6 21.8605ZM100.693 24.9883C100.48 25.2605 100.154 25.504 99.7225 25.7134C99.2176 25.9587 98.6107 26.1467 97.9142 26.272C97.1801 26.4063 96.3995 26.4726 95.5921 26.4726H93.6746C93.6352 25.7457 93.603 25.0224 93.5797 24.3098C93.5582 23.6635 93.5313 23.0243 93.4955 22.3959H95.7031C98.2203 22.3959 99.4736 22.7253 100.081 23.0028C100.781 23.3215 100.924 23.7279 100.924 24.24C100.924 24.5497 100.85 24.7878 100.693 24.9883Z" fill="#FF9A42"/>
<path d="M133.127 30.7211V30.7032C133.052 29.3032 132.979 27.8834 132.905 26.4457C132.83 25.0045 132.757 23.6115 132.683 22.2634C132.613 20.9868 132.547 19.696 132.49 18.4284C132.436 17.2306 132.372 16.151 132.297 15.22C132.284 14.597 132.055 14.0276 131.634 13.5711C131.172 13.0698 130.567 12.8066 129.883 12.8066H123.962C123.241 12.8066 122.618 13.0698 122.156 13.5693C122.118 13.6105 122.081 13.6534 122.047 13.6964C121.683 14.1458 121.492 14.6883 121.492 15.2773V15.331C121.535 16.3211 121.796 17.4365 122.294 18.7381C122.75 19.9395 123.237 21.1838 123.739 22.4388C124.242 23.6957 124.705 24.9973 125.119 26.3061C125.502 27.5253 125.697 28.7302 125.697 29.885C125.697 30.7247 125.54 31.3782 125.228 31.8258C124.881 32.3271 124.473 32.6977 123.986 32.9537C123.449 33.2384 122.892 33.4264 122.328 33.5159C121.696 33.6162 121.184 33.6663 120.808 33.6663C120.432 33.6663 119.921 33.6162 119.288 33.5159C118.726 33.4282 118.169 33.2384 117.632 32.9537C117.143 32.6959 116.736 32.3271 116.387 31.8258C116.078 31.38 115.92 30.7265 115.92 29.885C115.92 28.7267 116.113 27.5235 116.498 26.3043C116.91 24.9955 117.374 23.6957 117.877 22.437C118.396 21.139 118.883 19.8947 119.323 18.7381C119.818 17.4383 120.081 16.3247 120.124 15.331V15.3042L120.126 15.2773C120.126 14.6131 119.875 14.0115 119.4 13.5353C118.921 13.0572 118.317 12.8066 117.655 12.8066H111.734C111.048 12.8066 110.443 13.0698 109.983 13.5693C109.575 14.0115 109.337 14.5397 109.27 15.1412L109.265 15.1842V15.2272C109.226 16.1958 109.179 17.2718 109.125 18.4284C109.072 19.619 109.007 20.9098 108.932 22.2634C108.862 23.5471 108.789 24.9149 108.712 26.4457L108.689 26.8933C108.622 28.1788 108.556 29.45 108.49 30.705V30.7211C108.409 32.7228 108.612 34.5955 109.088 36.2839C109.577 38.0134 110.355 39.5352 111.403 40.8064C112.461 42.0954 113.804 43.1142 115.394 43.8357C116.969 44.5518 118.79 44.9153 120.808 44.9153C122.825 44.9153 124.646 44.5518 126.224 43.8357C127.813 43.1142 129.156 42.0936 130.214 40.8064C131.262 39.5352 132.039 38.0134 132.528 36.2839C132.796 35.3314 132.979 34.3198 133.07 33.2581C133.143 32.4417 133.161 31.5931 133.127 30.7211ZM131.321 35.9437C130.879 37.5121 130.188 38.8674 129.246 40.0114C128.306 41.1537 127.124 42.0489 125.704 42.6952C124.285 43.3397 122.652 43.662 120.808 43.662C118.964 43.662 117.331 43.3397 115.911 42.6952C114.491 42.0489 113.31 41.1537 112.37 40.0114C111.43 38.8674 110.737 37.5121 110.295 35.9437C109.852 34.3771 109.668 32.6512 109.741 30.7695C109.815 29.3694 109.888 27.9478 109.963 26.5102C110.037 25.0707 110.11 23.6796 110.184 22.3314C110.257 20.985 110.323 19.7031 110.377 18.4857C110.432 17.2682 110.479 16.1994 110.517 15.2773C110.552 14.9443 110.683 14.6596 110.903 14.4197C111.125 14.1798 111.401 14.0598 111.734 14.0598H117.655C117.986 14.0598 118.271 14.1798 118.512 14.4197C118.751 14.6596 118.872 14.9443 118.872 15.2773C118.835 16.1259 118.595 17.1304 118.153 18.2923C117.71 19.4543 117.231 20.6807 116.713 21.9715C116.196 23.2642 115.727 24.5819 115.302 25.9283C114.878 27.2747 114.667 28.5942 114.667 29.885C114.667 30.9915 114.896 31.8759 115.358 32.5402C115.818 33.2044 116.382 33.7129 117.046 34.062C117.71 34.4129 118.392 34.6439 119.093 34.7549C119.793 34.8641 120.365 34.9196 120.808 34.9196C121.25 34.9196 121.823 34.8641 122.523 34.7549C123.223 34.6439 123.907 34.4129 124.571 34.062C125.235 33.7129 125.798 33.2044 126.259 32.5402C126.72 31.8759 126.951 30.9915 126.951 29.885C126.951 28.5942 126.737 27.2747 126.313 25.9283C125.889 24.5819 125.42 23.2642 124.902 21.9715C124.385 20.6807 123.907 19.4543 123.465 18.2923C123.022 17.1304 122.781 16.1259 122.745 15.2773C122.745 15.177 122.756 15.0822 122.777 14.9908C122.822 14.7778 122.922 14.588 123.076 14.4197C123.298 14.1798 123.594 14.0598 123.962 14.0598H129.883C130.214 14.0598 130.492 14.1798 130.712 14.4197C130.934 14.6596 131.045 14.9443 131.045 15.2773C131.119 16.1994 131.183 17.2682 131.238 18.4857C131.294 19.7031 131.358 20.985 131.432 22.3314C131.505 23.6796 131.579 25.0707 131.654 26.5102C131.727 27.9478 131.801 29.3694 131.874 30.7695C131.879 30.8984 131.883 31.0273 131.887 31.1562C131.921 32.8893 131.734 34.4845 131.321 35.9437Z" fill="#FF9A42"/>
<path d="M114.677 10.2445C116.807 10.2445 118.534 8.51791 118.534 6.38804C118.534 4.25816 116.807 2.53156 114.677 2.53156C112.547 2.53156 110.821 4.25816 110.821 6.38804C110.821 8.51791 112.547 10.2445 114.677 10.2445Z" fill="#FF9A42"/>
<path d="M126.967 10.7799C124.544 10.7799 122.573 8.80866 122.573 6.38627C122.573 3.96389 124.544 1.99268 126.967 1.99268C129.389 1.99268 131.36 3.96389 131.36 6.38627C131.36 8.80866 129.389 10.7799 126.967 10.7799ZM126.967 3.06869C125.137 3.06869 123.647 4.5565 123.647 6.38806C123.647 8.21962 125.135 9.70743 126.967 9.70743C128.798 9.70743 130.286 8.21783 130.286 6.38806C130.286 4.55829 128.797 3.06869 126.967 3.06869Z" fill="#FF9A42"/>
<path d="M61.358 41.8913C61.358 42.2244 61.238 42.5108 60.9981 42.7489C60.7582 42.9906 60.4718 43.1088 60.1405 43.1088H54.2197C53.8509 43.1088 53.5555 42.9906 53.3335 42.7489C53.158 42.5592 53.0506 42.3371 53.0166 42.0865L61.1503 37.1218C61.1646 37.3957 61.1772 37.6678 61.1915 37.9364C61.2649 39.4296 61.3204 40.7491 61.358 41.8913Z" fill="#FF9A42"/>
<path d="M68.9942 32.3342C68.9906 33.0343 68.944 33.5284 68.8545 33.8131C68.7632 34.1085 68.4768 34.2553 67.9969 34.2553H65.8467L68.9942 32.3342Z" fill="#FF9A42"/>
<path d="M80.3918 41.8913C80.3918 42.2243 80.2719 42.5108 80.032 42.7489C79.7921 42.9906 79.5074 43.1088 79.1744 43.1088H73.2536C72.9224 43.1088 72.6359 42.9906 72.396 42.7489C72.1561 42.5108 72.0361 42.2243 72.0361 41.8913C72.1113 40.749 72.1847 39.4295 72.2581 37.9364C72.3315 36.4414 72.4049 34.8748 72.4801 33.233C72.5249 32.2125 72.575 31.1741 72.6287 30.116L79.6202 25.8495C79.6632 26.7339 79.7097 27.6273 79.7563 28.5297C79.8852 31.0183 80.0051 33.4532 80.1161 35.8327C80.2271 38.2121 80.3184 40.2316 80.3918 41.8913Z" fill="#FF9A42"/>
<path d="M105.027 20.2295C104.528 18.9565 103.81 17.859 102.868 16.937C101.928 16.0149 100.766 15.3041 99.3823 14.8064C99.1406 14.7187 98.8935 14.6399 98.6375 14.5683L85.8005 22.4048C85.7038 24.3993 85.6017 26.4421 85.4943 28.5297C85.3636 31.0183 85.2454 33.4532 85.1344 35.8327C85.0234 38.2121 84.9303 40.2316 84.8569 41.8913C84.8569 42.2243 84.9679 42.5108 85.1899 42.7489C85.412 42.9906 85.7056 43.1088 86.0744 43.1088H91.9952C92.3282 43.1088 92.6129 42.9906 92.8528 42.7489C93.0927 42.5108 93.2126 42.2243 93.2126 41.8913C93.1392 40.9335 93.0837 39.8449 93.0479 38.6274C93.0103 37.41 92.9548 36.137 92.8814 34.8086H94.5966C96.4407 34.8086 98.0628 34.5149 99.4664 33.9241C100.867 33.3351 102.039 32.5509 102.979 31.5716C103.921 30.5958 104.621 29.4786 105.083 28.2253C105.543 26.9703 105.774 25.6991 105.774 24.4064C105.774 22.8954 105.525 21.5024 105.027 20.2295ZM101.679 25.7618C101.346 26.1861 100.877 26.546 100.269 26.8414C99.6598 27.1368 98.949 27.3588 98.138 27.5056C97.3252 27.6524 96.4783 27.7258 95.5921 27.7258H92.4947C92.4195 26.5835 92.364 25.4574 92.3282 24.3509C92.2906 23.2445 92.2351 22.1756 92.1617 21.1426H95.7031C97.916 21.1426 99.5488 21.3825 100.6 21.8605C101.651 22.3421 102.177 23.1335 102.177 24.2399C102.177 24.8308 102.011 25.3392 101.679 25.7618Z" fill="#FF9A42"/>
<path d="M131.321 35.9436C130.879 37.512 130.187 38.8673 129.246 40.0114C128.306 41.1537 127.124 42.0489 125.704 42.6952C124.285 43.3397 122.652 43.662 120.808 43.662C118.964 43.662 117.331 43.3397 115.911 42.6952C114.491 42.0489 113.309 41.1537 112.37 40.0114C111.43 38.8673 110.737 37.512 110.294 35.9436C109.852 34.3771 109.668 32.6511 109.741 30.7694C109.815 29.3694 109.888 27.9478 109.963 26.5101C110.037 25.0707 110.11 23.6795 110.183 22.3314C110.257 20.985 110.323 19.7031 110.377 18.4856C110.432 17.2682 110.479 16.1993 110.516 15.2773C110.552 14.9443 110.683 14.6596 110.903 14.4197C111.125 14.1798 111.401 14.0598 111.734 14.0598H117.655C117.986 14.0598 118.271 14.1798 118.512 14.4197C118.75 14.6596 118.872 14.9443 118.872 15.2773C118.835 16.1259 118.595 17.1303 118.152 18.2923C117.71 19.4542 117.23 20.6806 116.713 21.9715C116.196 23.2642 115.727 24.5819 115.302 25.9283C114.878 27.2746 114.667 28.5941 114.667 29.885C114.667 30.9915 114.896 31.8759 115.358 32.5401C115.818 33.2044 116.382 33.7128 117.046 34.062C117.71 34.4129 118.392 34.6438 119.092 34.7548C119.792 34.864 120.365 34.9195 120.808 34.9195C121.25 34.9195 121.823 34.864 122.523 34.7548C123.223 34.6438 123.907 34.4129 124.571 34.062C125.235 33.7128 125.797 33.2044 126.259 32.5401C126.719 31.8759 126.95 30.9915 126.95 29.885C126.95 28.5941 126.737 27.2746 126.313 25.9283C125.889 24.5819 125.42 23.2642 124.902 21.9715C124.385 20.6806 123.907 19.4542 123.465 18.2923C123.022 17.1303 122.781 16.1259 122.745 15.2773C122.745 15.177 122.756 15.0821 122.777 14.9908L131.886 31.1562C131.921 32.8893 131.734 34.4845 131.321 35.9436Z" fill="#FF9A42"/>
</svg>
