<svg width="41" height="41" viewBox="0 0 41 41" fill="none" xmlns="http://www.w3.org/2000/svg">
<path d="M40.3578 20.1789C40.3578 20.399 40.3578 20.6192 40.3368 20.8393C40.1796 26.1225 37.9369 30.9235 34.4262 34.4351C30.9155 37.9468 25.728 40.3578 20.1736 40.3578C19.9536 40.3578 19.7335 40.3578 19.5134 40.3368C8.72969 39.9909 0 31.0598 0 20.1789C0 14.6336 2.27412 9.58104 5.93158 5.92263C9.58903 2.26423 14.6298 0 20.1736 0C25.7175 0 30.7687 2.26423 34.4262 5.92263C38.0837 9.58104 40.3578 14.6336 40.3578 20.1789Z" fill="url(#paint0_linear_219_638)"/>
<path d="M40.3368 20.8393C40.1796 26.1225 37.937 30.9235 34.4262 34.4352C30.9155 37.9468 25.728 40.3578 20.1737 40.3578H19.5344L19.5134 40.3368C16.7468 37.5695 14.0325 34.8545 11.2344 32.0661C12.6387 33.0095 14.3259 33.5546 16.1494 33.5546C21.033 33.5546 24.9839 29.6027 24.9839 24.7283V14.9796C26.8598 16.3109 29.1549 17.1075 31.6386 17.1075V13.3443C32.0997 13.4386 32.5713 13.4911 33.0429 13.4911C35.4008 15.9964 37.916 18.3759 40.3368 20.8393Z" fill="url(#paint1_linear_219_638)"/>
<g style="mix-blend-mode:multiply">
<path d="M40.3368 20.8393C40.1796 26.1225 37.937 30.9235 34.4262 34.4352C30.9155 37.9468 25.728 40.3578 20.1737 40.3578H19.5344L19.5134 40.3368C16.7468 37.5695 14.0325 34.8545 11.2344 32.0661C12.6387 33.0095 14.3259 33.5546 16.1494 33.5546C21.033 33.5546 24.9839 29.6027 24.9839 24.7283V14.9796C26.8598 16.3109 29.1549 17.1075 31.6386 17.1075V13.3443C32.0997 13.4386 32.5713 13.4911 33.0429 13.4911C35.4008 15.9964 37.916 18.3759 40.3368 20.8393Z" fill="#FF1753"/>
</g>
<path opacity="0.8" fill-rule="evenodd" clip-rule="evenodd" d="M28.1069 11.3213C27.1428 10.273 26.514 8.92076 26.3777 7.42175V6.80328H25.0573C25.3926 8.70062 26.5245 10.3359 28.1069 11.3213ZM14.3155 28.3239C13.781 27.6216 13.4876 26.762 13.4876 25.8815C13.4876 23.6487 15.3006 21.8457 17.5328 21.8457C17.952 21.8457 18.3607 21.9086 18.7589 22.0344V17.1496C18.2978 17.0867 17.8262 17.0552 17.3651 17.0657V20.8709C16.9669 20.7451 16.5582 20.6822 16.139 20.6822C13.9068 20.6822 12.0938 22.4956 12.0938 24.7179C12.0938 26.2903 12.995 27.6635 14.3155 28.3239Z" fill="#FF1753"/>
<path fill-rule="evenodd" clip-rule="evenodd" d="M24.9839 14.9797C26.8598 16.3214 29.1654 17.1076 31.6386 17.1076V13.3444C30.2553 13.0509 29.0291 12.3276 28.1069 11.3213C26.5245 10.3359 25.3926 8.71111 25.0573 6.80328H21.578V25.8815C21.578 28.1038 19.765 29.9068 17.5328 29.9068C16.2228 29.9068 15.0595 29.2779 14.3155 28.3135C12.995 27.6531 12.0937 26.2798 12.0937 24.7075C12.0937 22.4747 13.9067 20.6717 16.1389 20.6717C16.5686 20.6717 16.9773 20.7346 17.3651 20.8604V17.0552C12.5758 17.1496 8.71924 21.07 8.71924 25.8815C8.71924 28.282 9.68338 30.4624 11.2344 32.0557C12.6387 32.9992 14.3364 33.5442 16.1494 33.5442C21.0225 33.5442 24.9839 29.5923 24.9839 24.7179V14.9692V14.9797Z" fill="white"/>
<path fill-rule="evenodd" clip-rule="evenodd" d="M31.6386 13.3443V12.3275C30.3915 12.3275 29.1654 11.9816 28.1069 11.3212C29.0501 12.3485 30.2867 13.0613 31.6386 13.3443ZM25.0573 6.80321C25.0258 6.62501 25.0049 6.43632 24.9839 6.25812V5.63965H20.1737V24.7179C20.1737 26.9402 18.3607 28.7432 16.1285 28.7432C15.4787 28.7432 14.8604 28.5859 14.3155 28.3134C15.049 29.2778 16.2228 29.9067 17.5328 29.9067C19.7545 29.9067 21.5675 28.1037 21.578 25.8814V6.80321H25.0573ZM17.3651 17.0551V15.9754C16.9669 15.923 16.5581 15.8916 16.1494 15.8916C11.2658 15.8916 7.31494 19.8435 7.31494 24.7179C7.31494 27.7788 8.86595 30.4728 11.2344 32.0556C9.6729 30.4623 8.71924 28.2819 8.71924 25.8814C8.71924 21.0699 12.5758 17.1495 17.3651 17.0551Z" fill="#00C9D0"/>
<path opacity="0.8" fill-rule="evenodd" clip-rule="evenodd" d="M26.3777 16.1327C28.2536 17.4745 30.5592 18.2607 33.0324 18.2607V13.4806C32.5608 13.4806 32.0892 13.4282 31.6386 13.3339V17.0971C29.1549 17.0971 26.8598 16.3109 24.9839 14.9691V24.7179C24.9839 29.5923 21.033 33.5442 16.1494 33.5442C14.3259 33.5442 12.6387 32.9991 11.2344 32.0557C12.8378 33.691 15.07 34.7078 17.5537 34.7078C22.4373 34.7078 26.3882 30.7558 26.3882 25.8815V16.1327H26.3777Z" fill="#FF1753"/>
<defs>
<linearGradient id="paint0_linear_219_638" x1="7.22059" y1="4.73811" x2="33.1451" y2="35.613" gradientUnits="userSpaceOnUse">
<stop stop-color="#323232"/>
<stop offset="1"/>
</linearGradient>
<linearGradient id="paint1_linear_219_638" x1="7.19964" y1="4.29787" x2="33.3443" y2="35.4453" gradientUnits="userSpaceOnUse">
<stop stop-color="#646464"/>
<stop offset="0.43" stop-color="#1D1D1D"/>
<stop offset="0.6"/>
</linearGradient>
</defs>
</svg>
