<svg width="36" height="36" viewBox="0 0 36 36" fill="none" xmlns="http://www.w3.org/2000/svg">
<g clip-path="url(#clip0_116_124)">
<path d="M7.47998 28.424V15.4207C7.47998 15.0377 7.56575 14.6752 7.73729 14.3331C7.90883 13.991 8.1452 13.7093 8.4464 13.4879L16.5024 7.3872C16.9242 7.06506 17.4059 6.90399 17.9475 6.90399C18.489 6.90399 18.9737 7.06506 19.4016 7.3872L27.4576 13.4864C27.7598 13.7078 27.9961 13.99 28.1667 14.3331C28.3382 14.6752 28.424 15.0377 28.424 15.4207V28.424C28.424 28.8249 28.2749 29.1744 27.9767 29.4726C27.6785 29.7709 27.3289 29.92 26.928 29.92H21.8655C21.5224 29.92 21.2352 29.8043 21.0038 29.5729C20.7724 29.3405 20.6567 29.0533 20.6567 28.7112V21.5768C20.6567 21.2347 20.5411 20.9479 20.3097 20.7166C20.0773 20.4842 19.7901 20.368 19.448 20.368H16.456C16.1139 20.368 15.8272 20.4842 15.5958 20.7166C15.3634 20.9479 15.2472 21.2347 15.2472 21.5768V28.7127C15.2472 29.0548 15.1315 29.3415 14.9001 29.5729C14.6688 29.8043 14.382 29.92 14.0399 29.92H8.97598C8.57505 29.92 8.22549 29.7709 7.92728 29.4726C7.62908 29.1744 7.47998 28.8249 7.47998 28.424Z" fill="black"/>
</g>
<defs>
<clipPath id="clip0_116_124">
<rect width="35.904" height="35.904" fill="white"/>
</clipPath>
</defs>
</svg>
