<svg width="36" height="36" viewBox="0 0 36 36" fill="none" xmlns="http://www.w3.org/2000/svg">
<path d="M9.496 27.52H15.0192V19.9248C15.0192 19.5827 15.1354 19.2959 15.3678 19.0646C15.5992 18.8322 15.8859 18.716 16.228 18.716H20.716C21.0581 18.716 21.3453 18.8322 21.5777 19.0646C21.8091 19.2959 21.9248 19.5827 21.9248 19.9248V27.52H27.448V14.5167C27.448 14.3631 27.4146 14.2235 27.3478 14.0978C27.2809 13.9722 27.1897 13.8625 27.074 13.7687L19.0195 7.69796C18.8659 7.56432 18.6834 7.4975 18.472 7.4975C18.2606 7.4975 18.0786 7.56432 17.926 7.69796L9.87 13.7687C9.75531 13.8645 9.66405 13.9742 9.59623 14.0978C9.52841 14.2215 9.495 14.3611 9.496 14.5167V27.52ZM8 27.52V14.5167C8 14.1338 8.08577 13.7712 8.25731 13.4291C8.42885 13.0871 8.66522 12.8053 8.96642 12.5839L17.0224 6.48321C17.4442 6.16107 17.926 6 18.4675 6C19.0091 6 19.4938 6.16107 19.9216 6.48321L27.9776 12.5824C28.2798 12.8038 28.5161 13.0861 28.6867 13.4291C28.8582 13.7712 28.944 14.1338 28.944 14.5167V27.52C28.944 27.9209 28.7949 28.2705 28.4967 28.5687C28.1985 28.8669 27.8489 29.016 27.448 29.016H21.6375C21.2945 29.016 21.0072 28.9003 20.7758 28.6689C20.5445 28.4365 20.4288 28.1493 20.4288 27.8072V20.2135H16.5152V27.8072C16.5152 28.1503 16.3995 28.4375 16.1682 28.6689C15.9368 28.9003 15.65 29.016 15.308 29.016H9.496C9.09507 29.016 8.74551 28.8669 8.4473 28.5687C8.1491 28.2705 8 27.9209 8 27.52Z" fill="black"/>
</svg>
