<svg width="36" height="36" viewBox="0 0 36 36" fill="none" xmlns="http://www.w3.org/2000/svg">
<path d="M17.2039 20.944C23.3973 20.944 28.4239 23.2927 28.4239 26.18V29.92H5.98389V26.18C5.98389 23.2927 11.0104 20.944 17.2039 20.944ZM26.9279 26.18C26.9279 24.1155 22.5745 22.44 17.2039 22.44C11.8332 22.44 7.47989 24.1155 7.47989 26.18V28.424H26.9279V26.18ZM17.2039 7.47998C18.5926 7.47998 19.9244 8.03163 20.9063 9.01357C21.8882 9.99551 22.4399 11.3273 22.4399 12.716C22.4399 14.1047 21.8882 15.4365 20.9063 16.4184C19.9244 17.4003 18.5926 17.952 17.2039 17.952C15.8152 17.952 14.4834 17.4003 13.5015 16.4184C12.5195 15.4365 11.9679 14.1047 11.9679 12.716C11.9679 11.3273 12.5195 9.99551 13.5015 9.01357C14.4834 8.03163 15.8152 7.47998 17.2039 7.47998ZM17.2039 8.97598C16.212 8.97598 15.2607 9.37002 14.5593 10.0714C13.8579 10.7728 13.4639 11.7241 13.4639 12.716C13.4639 13.7079 13.8579 14.6592 14.5593 15.3606C15.2607 16.0619 16.212 16.456 17.2039 16.456C18.1958 16.456 19.1471 16.0619 19.8485 15.3606C20.5499 14.6592 20.9439 13.7079 20.9439 12.716C20.9439 11.7241 20.5499 10.7728 19.8485 10.0714C19.1471 9.37002 18.1958 8.97598 17.2039 8.97598Z" fill="black"/>
</svg>
