<svg width="36" height="36" viewBox="0 0 36 36" fill="none" xmlns="http://www.w3.org/2000/svg">
<g clip-path="url(#clip0_41_2098)">
<g clip-path="url(#clip1_41_2098)">
<path d="M17.2042 6.73468C18.7251 6.73468 20.1838 7.33887 21.2592 8.41432C22.3347 9.48978 22.9389 10.9484 22.9389 12.4693C22.9389 13.9903 22.3347 15.4489 21.2592 16.5244C20.1838 17.5998 18.7251 18.204 17.2042 18.204C15.6833 18.204 14.2246 17.5998 13.1492 16.5244C12.0737 15.4489 11.4695 13.9903 11.4695 12.4693C11.4695 10.9484 12.0737 9.48978 13.1492 8.41432C14.2246 7.33887 15.6833 6.73468 17.2042 6.73468ZM17.2042 21.0713C23.541 21.0713 28.6735 23.6376 28.6735 26.806V29.6733H5.73486V26.806C5.73486 23.6376 10.8674 21.0713 17.2042 21.0713Z" fill="black"/>
</g>
</g>
<defs>
<clipPath id="clip0_41_2098">
<rect width="35.904" height="35.904" fill="white"/>
</clipPath>
<clipPath id="clip1_41_2098">
<rect width="35.904" height="35.904" fill="white"/>
</clipPath>
</defs>
</svg>
