<svg width="27" height="27" viewBox="0 0 27 27" stroke="none" fill="currentColor" xmlns="http://www.w3.org/2000/svg">
<path d="M19.252 7.6786C18.8144 7.24093 18.5583 6.65421 18.5347 6.0358C18.5111 5.41738 18.7218 4.81285 19.1247 4.34311C19.158 4.30404 19.1754 4.25382 19.1732 4.20252C19.1711 4.15121 19.1496 4.10261 19.1131 4.06646L16.7922 1.74287C16.7538 1.70453 16.7018 1.68298 16.6475 1.68298C16.5933 1.68298 16.5413 1.70453 16.5029 1.74287L12.8035 5.44232C12.6669 5.57875 12.5641 5.74515 12.5031 5.92828C12.4424 6.11182 12.3397 6.27868 12.2032 6.41562C12.0667 6.55256 11.9002 6.65581 11.7169 6.71719C11.5336 6.77825 11.3671 6.88106 11.2304 7.0175L1.74299 16.5028C1.70465 16.5411 1.68311 16.5932 1.68311 16.6474C1.68311 16.7017 1.70465 16.7537 1.74299 16.792L4.06396 19.113C4.10011 19.1495 4.1487 19.1709 4.20001 19.1731C4.25131 19.1752 4.30153 19.1579 4.3406 19.1246C4.81025 18.7212 5.41491 18.5102 6.03354 18.5336C6.65217 18.5571 7.23911 18.8133 7.67686 19.2511C8.11461 19.6888 8.37086 20.2758 8.39432 20.8944C8.41778 21.513 8.20671 22.1177 7.80337 22.5874C7.77005 22.6264 7.75272 22.6766 7.75487 22.7279C7.75702 22.7793 7.77847 22.8278 7.81494 22.864L10.1359 25.185C10.1743 25.2233 10.2263 25.2448 10.2805 25.2448C10.3348 25.2448 10.3868 25.2233 10.4252 25.185L19.9131 15.6976C20.0495 15.5609 20.1523 15.3943 20.2134 15.2111C20.2742 15.0275 20.3769 14.8607 20.5133 14.7237C20.6498 14.5868 20.8163 14.4836 20.9997 14.4222C21.1828 14.3612 21.3492 14.2584 21.4856 14.1219L25.1851 10.4224C25.2234 10.3841 25.245 10.332 25.245 10.2778C25.245 10.2235 25.2234 10.1715 25.1851 10.1332L22.8641 7.81219C22.828 7.77572 22.7794 7.75426 22.7281 7.75212C22.6768 7.74997 22.6265 7.7673 22.5875 7.80062C22.1184 8.20421 21.5142 8.41585 20.8958 8.39323C20.2774 8.37061 19.6903 8.11539 19.252 7.6786Z" stroke="currentColor" stroke-width="1.496" stroke-miterlimit="10"/>
<path d="M13.1745 7.38627L12.3062 6.51794M15.4897 9.70144L14.9106 9.12291M17.8048 12.0171L17.2263 11.4381M20.4098 14.6216L19.5415 13.7533" stroke="currentColor" stroke-width="1.496" stroke-miterlimit="10" stroke-linecap="round"/>
</svg>
