<svg width="27" height="27" viewBox="0 0 27 27" fill="none" xmlns="http://www.w3.org/2000/svg">
<g clip-path="url(#clip0_41_2052)">
<g clip-path="url(#clip1_41_2052)">
<g clip-path="url(#clip2_41_2052)">
<path d="M25.7801 9.54058L23.4591 7.21961C23.2719 7.03488 23.0222 6.92701 22.7594 6.91728C22.4965 6.90754 22.2395 6.99665 22.0391 7.16702C21.7297 7.43038 21.3327 7.56789 20.9267 7.5523C20.5206 7.53672 20.1353 7.36917 19.847 7.08287C19.5609 6.7946 19.3934 6.40936 19.3778 6.00348C19.3622 5.59759 19.4997 5.20066 19.7629 4.89129C19.9332 4.69088 20.0223 4.43391 20.0126 4.17105C20.0029 3.90819 19.895 3.65851 19.7103 3.47126L17.3872 1.14767C17.1909 0.951723 16.9248 0.841675 16.6475 0.841675C16.3701 0.841675 16.1041 0.951723 15.9077 1.14767L12.2078 4.84711C11.9794 5.0764 11.8071 5.3554 11.7044 5.66231C11.6845 5.72133 11.6512 5.77494 11.6071 5.81899C11.563 5.86305 11.5094 5.89636 11.4504 5.91634C11.1434 6.01899 10.8643 6.19146 10.6352 6.42019L1.1473 15.9081C0.951357 16.1044 0.841309 16.3705 0.841309 16.6478C0.841309 16.9252 0.951357 17.1912 1.1473 17.3876L3.47089 19.7085C3.65815 19.8933 3.90782 20.0011 4.17068 20.0109C4.43355 20.0206 4.69051 19.9315 4.89092 19.7611C5.19959 19.4956 5.59718 19.3566 6.00403 19.3719C6.41087 19.3871 6.79692 19.5556 7.0848 19.8435C7.37269 20.1314 7.54115 20.5174 7.55643 20.9243C7.5717 21.3311 7.43267 21.7287 7.16718 22.0374C6.99681 22.2378 6.9077 22.4948 6.91744 22.7576C6.92717 23.0205 7.03504 23.2702 7.21977 23.4574L9.54074 25.7784C9.73706 25.9743 10.0031 26.0844 10.2805 26.0844C10.5578 26.0844 10.8239 25.9743 11.0202 25.7784L20.5081 16.2905C20.7368 16.0615 20.9092 15.7826 21.012 15.4758C21.0319 15.4166 21.0652 15.3628 21.1094 15.3186C21.1535 15.2745 21.2073 15.2411 21.2665 15.2212C21.5733 15.1186 21.8521 14.9463 22.0812 14.7179L25.7806 11.0179C25.9759 10.8216 26.0854 10.556 26.0853 10.2791C26.0852 10.0023 25.9755 9.73674 25.7801 9.54058ZM13.7693 7.98117C13.6911 8.05933 13.5984 8.12133 13.4962 8.16363C13.3941 8.20594 13.2847 8.22771 13.1742 8.22771C13.0637 8.22771 12.9542 8.20594 12.8521 8.16363C12.75 8.12133 12.6572 8.05933 12.5791 7.98117L11.9737 7.37582C11.8198 7.21721 11.7344 7.00439 11.736 6.78335C11.7377 6.5623 11.8263 6.35079 11.9826 6.19452C12.139 6.03825 12.3505 5.94977 12.5716 5.9482C12.7926 5.94663 13.0054 6.03211 13.1639 6.18615L13.7693 6.79097C13.8474 6.86912 13.9094 6.96189 13.9517 7.064C13.994 7.16611 14.0158 7.27555 14.0158 7.38607C14.0158 7.4966 13.994 7.60604 13.9517 7.70815C13.9094 7.81025 13.8474 7.90303 13.7693 7.98117ZM16.0834 10.2953C15.9256 10.453 15.7116 10.5416 15.4886 10.5416C15.2655 10.5416 15.0515 10.453 14.8937 10.2953L14.3152 9.71677C14.1574 9.55894 14.0687 9.34487 14.0687 9.12167C14.0687 8.89846 14.1574 8.6844 14.3152 8.52657C14.473 8.36874 14.6871 8.28007 14.9103 8.28007C15.1335 8.28007 15.3476 8.36874 15.5054 8.52657L16.0839 9.1051C16.1624 9.18324 16.2246 9.27608 16.2671 9.37832C16.3096 9.48055 16.3315 9.59017 16.3315 9.70088C16.3316 9.81159 16.3098 9.92122 16.2674 10.0235C16.225 10.1258 16.1628 10.2187 16.0845 10.2969L16.0834 10.2953ZM18.3975 12.6094C18.3194 12.6876 18.2266 12.7496 18.1245 12.7919C18.0224 12.8342 17.913 12.856 17.8024 12.856C17.6919 12.856 17.5825 12.8342 17.4804 12.7919C17.3782 12.7496 17.2855 12.6876 17.2073 12.6094L16.6288 12.0309C16.4748 11.8723 16.3894 11.6595 16.3911 11.4384C16.3928 11.2174 16.4813 11.0059 16.6377 10.8496C16.794 10.6933 17.0056 10.6048 17.2266 10.6033C17.4477 10.6017 17.6605 10.6872 17.819 10.8412L18.3975 11.4198C18.4762 11.4978 18.5386 11.5905 18.5814 11.6927C18.6241 11.7949 18.6462 11.9046 18.6464 12.0154C18.6467 12.1261 18.625 12.2359 18.5828 12.3383C18.5405 12.4407 18.4785 12.5337 18.4002 12.6121L18.3975 12.6094ZM20.7343 14.9519C20.6561 15.0301 20.5633 15.0921 20.4612 15.1344C20.3591 15.1767 20.2497 15.1985 20.1392 15.1985C20.0286 15.1985 19.9192 15.1767 19.8171 15.1344C19.715 15.0921 19.6222 15.0301 19.5441 14.9519L18.9424 14.3471C18.8626 14.2692 18.7991 14.1762 18.7555 14.0735C18.712 13.9709 18.6893 13.8605 18.6888 13.749C18.6882 13.6375 18.7099 13.527 18.7524 13.4239C18.795 13.3208 18.8576 13.2272 18.9367 13.1485C19.0157 13.0699 19.1096 13.0077 19.2129 12.9656C19.3162 12.9236 19.4268 12.9025 19.5384 12.9035C19.6499 12.9046 19.7601 12.9278 19.8625 12.9719C19.965 13.0159 20.0577 13.0799 20.1352 13.1601L20.7374 13.7644C20.8155 13.8426 20.8775 13.9354 20.9198 14.0375C20.962 14.1396 20.9837 14.2491 20.9837 14.3596C20.9836 14.4701 20.9618 14.5795 20.9195 14.6816C20.8771 14.7837 20.8151 14.8765 20.7369 14.9546L20.7343 14.9519Z" fill="black"/>
</g>
</g>
</g>
<defs>
<clipPath id="clip0_41_2052">
<rect width="26.928" height="26.928" fill="white"/>
</clipPath>
<clipPath id="clip1_41_2052">
<rect width="26.928" height="26.928" fill="white"/>
</clipPath>
<clipPath id="clip2_41_2052">
<rect width="26.928" height="26.928" fill="white"/>
</clipPath>
</defs>
</svg>
