<svg width="31" height="31" viewBox="0 0 31 31" stroke="none" fill="currentColor" xmlns="http://www.w3.org/2000/svg">
<path d="M5.47683 15.8229C4.96611 15.3156 4.56148 14.7117 4.28649 14.0464C4.01151 13.3811 3.87169 12.6678 3.87516 11.9479C3.87516 10.492 4.45353 9.09567 5.48302 8.06618C6.51252 7.03668 7.90882 6.45832 9.36475 6.45832C11.4056 6.45832 13.1881 7.56915 14.131 9.22248H15.5777C16.057 8.38168 16.7506 7.68293 17.5879 7.19738C18.4251 6.71182 19.3761 6.45682 20.3439 6.45832C21.7998 6.45832 23.1961 7.03668 24.2256 8.06618C25.2551 9.09567 25.8335 10.492 25.8335 11.9479C25.8335 13.4591 25.1877 14.8541 24.2318 15.8229L14.8543 25.1875L5.47683 15.8229ZM25.136 16.74C26.3631 15.5 27.1252 13.8208 27.1252 11.9479C27.1252 10.1494 26.4107 8.42456 25.139 7.15283C23.8672 5.8811 22.1424 5.16665 20.3439 5.16665C18.0835 5.16665 16.0814 6.26457 14.8543 7.96957C14.228 7.09963 13.4033 6.39156 12.4486 5.9041C11.4939 5.41664 10.4367 5.16383 9.36475 5.16665C7.56625 5.16665 5.84141 5.8811 4.56968 7.15283C3.29795 8.42456 2.5835 10.1494 2.5835 11.9479C2.5835 13.8208 3.34558 15.5 4.57266 16.74L14.8543 27.0216L25.136 16.74Z" stroke="currentColor"/>
</svg>
