<svg width="16" height="18" viewBox="0 0 16 18" fill="none" xmlns="http://www.w3.org/2000/svg">
<path d="M2.05907 11.0264L2.05905 11.0264C1.41802 11.675 1.05844 12.554 1.05853 13.47C1.05861 14.3859 1.41835 15.2649 2.05951 15.9134C2.70076 16.5619 3.57106 16.9268 4.4791 16.9267C5.38714 16.9266 6.25736 16.5616 6.89849 15.9129C6.8985 15.9129 6.8985 15.9129 6.89851 15.9129L13.3984 9.33754C13.471 9.27045 13.5658 9.23444 13.6631 9.23618C13.7617 9.23794 13.8563 9.27832 13.9269 9.34973C13.9975 9.42122 14.0385 9.51826 14.0403 9.62055C14.0421 9.72154 14.0055 9.81883 13.9389 9.89253L7.43899 16.4679L7.43898 16.4679L7.43673 16.4702C7.04956 16.8722 6.5875 17.1921 6.07744 17.4118C5.56738 17.6314 5.01939 17.7463 4.46525 17.7499C3.91111 17.7535 3.36171 17.6458 2.8489 17.4329C2.33608 17.22 1.86997 16.9061 1.47771 16.5092C1.08543 16.1124 0.774818 15.6406 0.564025 15.121C0.353229 14.6015 0.246496 14.0446 0.250088 13.4829C0.25368 12.9211 0.367524 12.3657 0.584942 11.849C0.802357 11.3322 1.11897 10.8645 1.51628 10.4728L1.51629 10.4728L1.51857 10.4705L10.766 1.11488C10.766 1.11487 10.766 1.11486 10.7661 1.11486C11.314 0.560682 12.0565 0.249926 12.83 0.25C13.6036 0.250074 14.346 0.560981 14.8939 1.11527C15.4418 1.66967 15.7501 2.42215 15.75 3.20733C15.7499 3.99251 15.4415 4.74494 14.8935 5.29922L14.8935 5.29924L5.65104 14.6489L5.65103 14.6489L5.64984 14.6501L5.64029 14.6592C5.32613 14.9558 4.9107 15.1165 4.48217 15.1081C4.05364 15.0998 3.64461 14.9229 3.34195 14.6141C3.0392 14.3052 2.86678 13.8886 2.8621 13.4525C2.85743 13.0174 3.02007 12.5981 3.31479 12.2829L9.91309 5.60797C9.98553 5.53779 10.0816 5.49945 10.1808 5.50028C10.2806 5.50111 10.3766 5.54152 10.4481 5.61375C10.5196 5.68606 10.5607 5.78451 10.5617 5.88804C10.5626 5.99091 10.5238 6.08953 10.4543 6.16305L3.85495 12.8391C3.85474 12.8393 3.85452 12.8395 3.85431 12.8397C3.68811 13.006 3.5944 13.2315 3.59286 13.4668C3.59133 13.7023 3.68232 13.9294 3.84671 14.0979C4.0112 14.2665 4.23579 14.3627 4.47123 14.3642C4.70668 14.3658 4.93253 14.2727 5.09923 14.1062L5.10041 14.105L14.3529 4.74255C14.353 4.74254 14.353 4.74253 14.353 4.74252C14.5527 4.54051 14.7109 4.30084 14.8188 4.03728C14.9268 3.77371 14.9823 3.49131 14.9823 3.2062C14.9823 2.92108 14.9268 2.63868 14.8188 2.37512C14.7108 2.11124 14.5524 1.87249 14.3529 1.6707C14.1532 1.46868 13.916 1.30827 13.6547 1.19877C13.3934 1.08927 13.1132 1.03288 12.8302 1.03288C12.5472 1.03288 12.267 1.08927 12.0057 1.19877C11.7443 1.30827 11.5071 1.46868 11.3074 1.6707L2.05907 11.0264Z" fill="black" stroke="black" stroke-width="0.5"/>
</svg>
