<svg width="20" height="20" viewBox="0 0 20 20" fill="none" xmlns="http://www.w3.org/2000/svg">
<g clip-path="url(#clip0_65_322)">
<path d="M20 18H18.56C18.4166 18.0092 18.2747 17.9666 18.16 17.88C18.0592 17.797 17.9802 17.6906 17.93 17.57L17 15H12L11 17.54C10.9513 17.6559 10.8759 17.7587 10.78 17.84C10.6681 17.9338 10.5259 17.9835 10.38 17.98H9L13.55 6.51H15.44L20 18ZM16.47 13.69L14.89 9.5C14.7377 9.09402 14.6075 8.68008 14.5 8.26C14.44 8.50667 14.3767 8.73667 14.31 8.95L14.12 9.51L12.54 13.7L16.47 13.69ZM10.17 12.11C9.14664 11.7592 8.16953 11.2857 7.26 10.7C8.6616 9.19461 9.63222 7.33974 10.07 5.33H12V4H7.31C7.25732 3.80863 7.19047 3.62145 7.11 3.44C6.87 2.79 6.6 2 6.6 2L5.13 2.5C5.13 2.5 5.53 3.39 5.73 4H0V5.33H2.15C2.5882 7.34799 3.57434 9.20608 5 10.7C3.45487 11.66 1.76723 12.3688 0 12.8C0.373333 13.3467 0.663333 13.8067 0.87 14.18C2.70762 13.5637 4.46117 12.7205 6.09 11.67C7.19632 12.4094 8.3927 13.0042 9.65 13.44L10.17 12.11ZM3.63 5.33H8.54C8.22163 7.03767 7.3627 8.59775 6.09 9.78C4.86383 8.56054 4.01051 7.01695 3.63 5.33Z" fill="black"/>
</g>
<defs>
<clipPath id="clip0_65_322">
<rect width="20" height="20" fill="white"/>
</clipPath>
</defs>
</svg>
